<svg width="16" height="16" viewBox="0 0 16 16" fill="none" xmlns="http://www.w3.org/2000/svg">
<path fill-rule="evenodd" clip-rule="evenodd" d="M2.9999 2.39999C1.56396 2.39999 0.399902 3.56405 0.399902 4.99999V12C0.399902 13.4359 1.56396 14.6 2.9999 14.6H12.9999C14.4358 14.6 15.5999 13.4359 15.5999 12V4.99999C15.5999 3.56405 14.4358 2.39999 12.9999 2.39999H2.9999ZM2.54359 3.67604C2.68662 3.62676 2.84013 3.59999 2.9999 3.59999H12.9999C13.1597 3.59999 13.3132 3.62676 13.4562 3.67605L8.91214 7.57931C8.38748 8.02998 7.61234 8.02998 7.08768 7.57931L2.54359 3.67604ZM1.68438 4.51993C1.62972 4.66966 1.5999 4.83135 1.5999 4.99999V12C1.5999 12.7732 2.2267 13.4 2.9999 13.4H12.9999C13.7731 13.4 14.3999 12.7732 14.3999 12V4.99999C14.3999 4.83135 14.3701 4.66967 14.3154 4.51994L9.69405 8.48959C8.71968 9.32655 7.28014 9.32655 6.30577 8.48959L1.68438 4.51993Z" fill="#222222"/>
</svg>
