<svg width="24" height="24" viewBox="0 0 24 24" fill="none" xmlns="http://www.w3.org/2000/svg">
<path fill-rule="evenodd" clip-rule="evenodd" d="M10.4497 17.1872L5.88128 12.6187C5.53957 12.277 5.53957 11.723 5.88128 11.3813L10.4497 6.81283C10.7915 6.47112 11.3455 6.47112 11.6872 6.81283C12.0289 7.15454 12.0289 7.70856 11.6872 8.05027L8.61244 11.125L17.5 11.125C17.9832 11.125 18.375 11.5168 18.375 12C18.375 12.4833 17.9832 12.875 17.5 12.875L8.61244 12.875L11.6872 15.9498C12.0289 16.2915 12.0289 16.8455 11.6872 17.1872C11.3455 17.5289 10.7915 17.5289 10.4497 17.1872Z" fill="#0085FF"/>
<rect x="0.875" y="0.875" width="22.25" height="22.25" rx="11.125" stroke="#0085FF" stroke-width="1.75"/>
</svg>
